# xmcd
#
# Track frame offsets:
# 150
# 19208
# 33565
# 50165
# 67927
# 82409
# 93281
# 107086
# 122331
# 142755
# 158867
# 170201
# 190961
# 202228
# 220246
# 238235
# 252531
# 266045
#
# Disc length: 3710 seconds
#
#
# Revision: 0
# Processed by: cddbd v1.5.2PL0 Copyright (c) Steve Scherf et al.
# Submitted via: FreeRIP 2.951 
#
DISCID=150e7c12
DTITLE=Aaron Neville - Great Aaron Neville disc 2
DYEAR=1900
DGENRE=R&B
TTITLE0=Going home
TTITLE1=Pain in my heart
TTITLE2=Struttin on Sunday
TTITLE3=Dance your blues away
TTITLE4=Baby i want you
TTITLE5=Tippi toe
TTITLE6=Performance
TTITLE7=I'm gonna put some hurt on you
TTITLE8=Mojo Hannah
TTITLE9=The greatest love
TTITLE10=Bo Diddley
TTITLE11=Wild flower
TTITLE12=Art
TTITLE13=Feelings
TTITLE14=Nadie
TTITLE15=Ease back
TTITLE16=For the good times
TTITLE17=She's on my mind
EXTD=
EXTT0=
EXTT1=
EXTT2=
EXTT3=
EXTT4=
EXTT5=
EXTT6=
EXTT7=
EXTT8=
EXTT9=
EXTT10=
EXTT11=
EXTT12=
EXTT13=
EXTT14=
EXTT15=
EXTT16=
EXTT17=
PLAYORDER=
